<svg t="1735311360682" class="icon" viewBox="0 0 1024 1024" version="1.1" xmlns="http://www.w3.org/2000/svg" p-id="4258" width="200" height="200"><path d="M640 138.666667c-53.717333 0-98.986667 36.096-112.896 85.333333H469.333333A160 160 0 0 0 309.333333 384v10.666667H256a117.333333 117.333333 0 1 0 0 234.666666h53.333333V640A160 160 0 0 0 469.333333 800h57.770667a117.376 117.376 0 0 0 112.896 85.333333h128a117.333333 117.333333 0 1 0 0-234.666666h-128c-53.717333 0-98.986667 36.096-112.896 85.333333H469.333333A96 96 0 0 1 373.333333 640v-10.666667H384a117.333333 117.333333 0 1 0 0-234.666666h-10.666667V384A96 96 0 0 1 469.333333 288h57.770667a117.376 117.376 0 0 0 112.896 85.333333h128a117.333333 117.333333 0 1 0 0-234.666666h-128zM586.666667 256c0-29.44 23.893333-53.333333 53.333333-53.333333h128a53.333333 53.333333 0 1 1 0 106.666666h-128c-29.44 0-53.333333-23.893333-53.333333-53.333333z m-384 256c0-29.44 23.893333-53.333333 53.333333-53.333333h128a53.333333 53.333333 0 1 1 0 106.666666H256c-29.44 0-53.333333-23.893333-53.333333-53.333333z m384 256c0-29.44 23.893333-53.333333 53.333333-53.333333h128a53.333333 53.333333 0 1 1 0 106.666666h-128c-29.44 0-53.333333-23.893333-53.333333-53.333333z" p-id="4259" fill="#2c2c2c"></path></svg>