<svg t="1735311502224" class="icon" viewBox="0 0 1024 1024" version="1.1" xmlns="http://www.w3.org/2000/svg" p-id="5547" width="200" height="200"><path d="M848.802391 389.364885c0-177.327508-143.741455-321.090369-321.068963-321.090369s-321.090369 143.762861-321.090369 321.090369c0 42.597989 8.380459 83.215921 23.4503 120.430294h-0.331794s113.719506 253.190459 132.010954 294.332839c0 0 3.574806 12.501118 23.182725 12.501118h285.406526c19.607919 0 23.182725-12.501118 23.182725-12.501118 15.262496-34.281748 96.744528-215.794134 123.459247-275.313586 2.461693-5.126743 4.805653-10.328407 6.99977-15.594289l1.551937-3.424964h-0.192655a319.84882 319.84882 0 0 0 23.439597-120.430294z m-92.88074 92.292075l-2.02287 5.019713c-1.402095 3.243013-2.847001 6.443213-4.366829 9.589899l-0.856241 1.862324c-21.866254 48.666597-80.293998 178.836633-109.288458 243.579154h-223.446789c-31.498965-70.340197-97.793424-217.988252-114.115517-254.36779l-2.279741-5.6833a244.349771 244.349771 0 0 1-17.981061-92.292075c0-135.757008 110.433681-246.169283 246.169283-246.169283s246.147877 110.412275 246.147877 246.169283c0 31.820056-6.047202 62.880197-17.959654 92.292075z" fill="#2c2c2c" p-id="5548"></path><path d="M617.80998 416.582645h-180.17451a37.460543 37.460543 0 1 0 0 74.921086h52.637415v155.193679c0 20.699626 16.760917 37.460543 37.460543 37.460543s37.460543-16.760917 37.460543-37.460543v-155.193679h52.616009a37.460543 37.460543 0 1 0 0-74.921086zM650.81807 859.441186h-246.169283a37.460543 37.460543 0 1 0 0 74.921086h246.169283a37.460543 37.460543 0 0 0 0-74.921086z" fill="#2c2c2c" p-id="5549"></path></svg>